<svg width="1200" height="900" viewBox="0 0 1200 900" fill="none" xmlns="http://www.w3.org/2000/svg">
  <rect x="0" y="0" width="1200" height="900" fill="none"/>
  <circle cx="320" cy="240" r="120" fill="#F2C14E" opacity="0.28"/>
  <rect x="780" y="120" width="280" height="180" rx="32" fill="#6BA89F" opacity="0.24"/>
  <rect x="140" y="520" width="260" height="220" rx="32" fill="#1F3D7A" opacity="0.18"/>
  <rect x="520" y="320" width="430" height="420" rx="36" fill="#ffffff" stroke="#D1D9E0" stroke-width="4"/>
  <rect x="570" y="380" width="330" height="72" rx="18" fill="#F2C14E"/>
  <rect x="570" y="470" width="240" height="20" rx="10" fill="#6BA89F"/>
  <rect x="570" y="510" width="280" height="20" rx="10" fill="#6BA89F"/>
  <rect x="570" y="550" width="160" height="20" rx="10" fill="#1F3D7A"/>
  <circle cx="650" cy="700" r="62" fill="#F2C14E"/>
  <circle cx="870" cy="640" r="42" fill="#6BA89F"/>
  <path d="M270 260C270 216.654 305.654 181 349 181H414C457.346 181 493 216.654 493 260V325C493 368.346 457.346 404 414 404H349C305.654 404 270 368.346 270 325V260Z" fill="#ffffff" stroke="#D1D9E0" stroke-width="4"/>
  <circle cx="372" cy="291" r="22" fill="#1F3D7A"/>
  <path d="M300 337H444" stroke="#6BA89F" stroke-width="18" stroke-linecap="round"/>
  <path d="M240 620C240 572.386 280.386 532 328 532H365C412.614 532 453 572.386 453 620V657C453 704.614 412.614 745 365 745H328C280.386 745 240 704.614 240 657V620Z" fill="#ffffff" stroke="#D1D9E0" stroke-width="4"/>
  <circle cx="329" cy="652" r="18" fill="#6BA89F"/>
  <path d="M300 688H356" stroke="#1F3D7A" stroke-width="14" stroke-linecap="round"/>
  <path d="M870 240C870 207.49 896.49 181 929 181H974C1006.51 181 1033 207.49 1033 240V285C1033 317.51 1006.51 344 974 344H929C896.49 344 870 317.51 870 285V240Z" fill="#ffffff" stroke="#D1D9E0" stroke-width="4"/>
  <path d="M910 245L968 303" stroke="#F2C14E" stroke-width="10" stroke-linecap="round"/>
  <path d="M968 245L910 303" stroke="#F2C14E" stroke-width="10" stroke-linecap="round"/>
</svg>
